<?xml version="1.0" encoding="UTF-8"?>
<svg id="Layer_1" xmlns="http://www.w3.org/2000/svg" xmlns:xlink="http://www.w3.org/1999/xlink" version="1.1" viewBox="0 0 712.59 400.76">
  <!-- Generator: Adobe Illustrator 29.6.1, SVG Export Plug-In . SVG Version: 2.1.1 Build 9)  -->
  <defs>
    <style>
      .st0, .st1 {
        fill: none;
        stroke: #000;
        stroke-miterlimit: 10;
      }

      .st1 {
        stroke-width: 2px;
      }
    </style>
  </defs>
  <path id="Outline" class="st0" d="M223.51,370.44s8.95-1.99,1.49-11.94-52.23-75.61-52.23-75.61c0,0,.5-19.9,9.45-24.37s80.58-35.32,80.58-35.32c0,0,.99-14.42,10.94-17.91s18.4,4.48,18.4,4.48l78.09-33.82,2.98-6.96-87.05-77.1-9.45-1.99-7.46-1.99-17.41-6.96,30.34-25.87,33.33-31.83,8.95-4.48,10.45-2.98h6.47l2.98,23.88,28.35,3.98,27.85,85.06,17.91,29.84,37.8,42.78,32.33-28.35,15.42,10.45,25.37,45.26-.99,5.47,55.71,34.32,7.96,6.96,5.47,13.93-109.93-6.96,11.44,40.29-33.33-.99s-15.92,1.99-14.42,10.94,17.41,21.39,20.39,22.38l3.48,4.48,9.95,38.3-129.82-16.41-1.99-18.9-95-12.44-5.97,40.79-28.85-20.39Z"/>
  <path id="Roads" class="st0" d="M226.5,374.67l2.49-4.1s3.23-7.09.62-9.95-6.09-10.32-6.09-10.32l-5.97-7.96-39.67-58.45s-3.11-13.43-.75-14.55,4.73-6.34,4.73-6.34l87.92-39.67s-1.62-8.83,4.97-11.07,6.84-1.49,10.07-1.12,3.36,2.36,4.35,3.23c1.99-.37,88.04-38.55,88.04-38.55,0,0,.12-3.61,0-4.97s.12-1.12,1.24-2.49c-1.74-1.74-90.78-79.59-90.78-79.59l-3.85-.87-9.08-2.49-4.35-1.37-4.23-3.36-7.96-4.73,4.73-3.85,11.19,7.83,5.6,1.74,6.84,1.62-1.49-6.47-1.87-4.35-3.85-4.23-5.1-6.22,4.6-3.36,2.98,4.35,5.35,5.22,1.87,3.61,1.49,5.1,1.49,3.48.99,2.86,3.85,5.22,3.85,4.1,9.33,8.08,31.46,27.98,7.21-4.48,7.71-3.85,6.96-1.99,6.47-1.24,8.58-.99.12,4.48-13.43,2.61-5.35.99-7.34,3.73-1.99,1.24-3.85,3.61,35.69,31.59s3.73-1.37,7.96-1.24,6.34,1.74,8.08,5.1l3.61-.12,4.73-.62,5.84-1.99,1.87-.25-2.24-3.73,5.35-1.37,18.9,28.35,5.22,4.48,14.18,12.31,7.83,7.46,2.98,4.48,1.87,7.09,10.07-3.36-10.82-21.64,12.31-4.1,25.74,49.99,42.9,26.86-6.34,9.33-17.53-10.07-3.73,7.09-4.48-2.24-.37,3.36-23.13-13.8,1.49-2.98-2.98-1.87,7.09-9.33-21.64,6.34,19.4,60.81-7.09.37-14.55-45.14-6.34-27.23-6.34-24.62-2.61-5.6-6.72-7.46-18.28-15.3-10.45-13.43-7.09-10.82-16.79,4.1s.37,4.48-2.24,6.34-2.24,4.1-5.97,3.36l.37,6.72.75,12.31,2.61,2.98,28.73,31.34-4.1,3.36-27.23-30.59-2.24,1.87-2.98.75h-2.61l1.49,4.1h-43.65v-15.3l18.65-7.83h23.88l.75,14.55,3.36-2.24-1.49-3.36-2.24-19.03-4.1-.75-2.61-2.61-87.3,39.17s.37,2.24-.37,5.6-1.87,1.87-4.48,3.36l1.87,5.6,1.12,3.36.37,5.22v85.06s1.87,5.22,5.22,8.95,8.58,4.85,11.19,4.85l.75-3.36h89.53v2.61h4.1l2.61-4.1,4.85-14.92,5.22-.37.37,12.68s3.36,5.97,10.07,7.09l.75,5.22v26.49l-61.93-.75-1.12-22.76-54.09.37-.75-4.1s-21.26-2.24-21.26-15.3h-3.73v14.92l-23.13-.37v-11.19l-5.6-.37v-2.98l-3.36.75,6.72,10.82-20.89,10.82-49.24-69.02v-7.46l18.65-10.07,42.53,61.18,5.22-2.24v-3.36l17.53.37-.37-34.32,14.92.37-.75-49.24-.37-4.1-1.87-3.36s-8.21-.37-9.7-2.98c-4.1,1.87-86.92,38.42-86.92,38.42,0,0-6.34,8.21-3.36,14.18s50.36,74.61,50.36,74.61c0,0,4.85,7.46,2.98,13.06s-4.1,9.33-4.1,9.33l-5.1-2.61ZM476.69,253.05l16.91-3.98-13.43-24.87-9.45,4.48,5.97,24.37Z"/>
  <image width="1346" height="757" transform="scale(.53)" xlink:href="DevelopmentDrawing.png"/>
  <path id="StadiumBoundary" class="st0" d="M307.08,335.12l92.02.5,8.46-14.92-.5-43.27s12.44-4.97,11.94-10.94-6.47-10.45-10.45-10.45v-20.89l-8.46-12.44-7.96-5.97-87.54-.5-7.46,3.48s.99,12.56-5.97,13.43l1.49,8.46-.99,86.55,5.47,7.46,5.47,2.49,4.48-2.98Z"/>
  <polygon id="Field" class="st0" points="326.48 307.77 376.71 308.26 375.72 240.62 327.47 241.61 326.48 307.77"/>
  <g id="Bleachers">
    <polygon class="st0" points="380.69 308.26 385.67 310.75 385.67 237.13 380.69 239.12 380.69 308.26"/>
    <polygon class="st1" points="385.67 310.75 389.65 312.24 390.14 235.14 385.67 237.13 385.67 310.75"/>
    <polygon class="st1" points="395.62 313.24 395.12 234.65 390.14 235.14 389.65 312.24 395.62 313.24"/>
    <polygon class="st1" points="402.58 315.72 402.58 231.66 395.12 234.65 395.62 313.24 402.58 315.72"/>
    <polygon class="st1" points="321.5 308.76 322.99 239.62 315.04 236.64 315.53 310.25 321.5 308.76"/>
    <polygon class="st1" points="309.07 234.15 310.56 312.24 315.53 310.25 315.04 236.64 309.07 234.15"/>
    <polygon class="st1" points="303.59 233.15 305.58 314.23 310.56 312.24 309.07 234.15 303.59 233.15"/>
    <polygon class="st1" points="298.62 231.16 298.62 315.23 305.58 314.23 303.59 233.15 298.62 231.16"/>
  </g>
  <g id="Buildings">
    <polygon class="st1" points="336.92 315.23 337.42 332.64 364.28 333.63 362.79 315.23 336.92 315.23"/>
    <polygon class="st1" points="313.05 222.71 338.41 223.21 338.41 218.73 312.55 217.73 313.05 222.71"/>
    <polygon class="st1" points="357.32 223.21 385.17 224.2 384.18 218.23 357.81 217.73 357.32 223.21"/>
    <polygon class="st1" points="224.51 286.87 238.43 285.38 235.95 271.45 226.99 257.03 209.58 264.49 224.51 286.87"/>
    <polygon class="st1" points="239.93 265.98 263.3 256.04 266.79 257.53 266.29 283.39 281.21 283.39 281.71 249.57 262.81 240.12 232.96 254.54 239.93 265.98"/>
    <polygon class="st1" points="382.68 149.59 393.13 146.11 384.67 124.22 374.72 127.7 382.68 149.59"/>
    <polygon class="st1" points="402.58 185.9 411.53 181.42 425.46 200.82 417 206.79 402.58 185.9"/>
    <polygon class="st1" points="423.47 213.26 430.43 206.29 447.84 222.21 441.38 229.67 423.47 213.26"/>
    <polygon class="st1" points="446.35 297.82 472.22 293.34 475.2 302.29 450.33 307.77 446.35 297.82"/>
    <polygon class="st1" points="442.87 313.24 438.39 335.12 428.44 334.13 432.92 310.25 442.87 313.24"/>
    <polygon class="st1" points="555.28 256.04 549.81 266.98 519.47 251.06 525.44 240.62 516.98 237.63 513.5 231.16 504.05 234.15 494.1 213.76 501.07 211.77 499.08 207.79 492.61 210.27 482.16 187.89 493.6 182.92 517.48 228.18 519.47 234.15 528.92 238.13 555.28 256.04"/>
  </g>
  <g id="GreenRoundabouts">
    <circle class="st0" cx="280.96" cy="221.47" r="6.22"/>
    <circle class="st0" cx="388.28" cy="173.06" r="6.47"/>
    <circle class="st0" cx="253.57" cy="301.77" r="4.73"/>
  </g>
</svg>