<?xml version="1.0" encoding="UTF-8"?>
<svg id="Layer_1" data-name="Layer 1" xmlns="http://www.w3.org/2000/svg" viewBox="0 0 426.03 383.11">
  <path id="Outline" d="M51.24,355.15s8.95-1.99,1.49-11.94S.5,267.6.5,267.6c0,0,.5-19.9,9.45-24.37s80.58-35.32,80.58-35.32c0,0,.99-14.42,10.94-17.91s18.4,4.48,18.4,4.48l78.09-33.82,2.98-6.96-87.05-77.1-9.45-1.99-7.46-1.99-17.41-6.96,30.34-25.87,33.33-31.83,8.95-4.48,10.45-2.98h6.47l2.98,23.88,28.35,3.98,27.85,85.06,17.91,29.84,37.8,42.78,32.33-28.35,15.42,10.45,25.37,45.26-.99,5.47,55.71,34.32,7.96,6.96,5.47,13.93-109.93-6.96,11.44,40.29-33.33-.99s-15.92,1.99-14.42,10.94,17.41,21.39,20.39,22.38l3.48,4.48,9.95,38.3-129.82-16.41-1.99-18.9-95-12.44-5.97,40.79-28.85-20.39.02-.02Z" style="fill: #f2f2f2; stroke: #000; stroke-miterlimit: 10;"/>
  <path id="RoadsOuter" d="M54.23,359.38l2.49-4.1s3.23-7.09.62-9.95-6.09-10.32-6.09-10.32l-5.97-7.96-39.67-58.45s-3.11-13.43-.75-14.55,4.73-6.34,4.73-6.34l87.92-39.67s-1.62-8.83,4.97-11.07,6.84-1.49,10.07-1.12,3.36,2.36,4.35,3.23c1.99-.37,88.04-38.55,88.04-38.55,0,0,.12-3.61,0-4.97s.12-1.12,1.24-2.49c-1.74-1.74-90.78-79.59-90.78-79.59l-3.85-.87-9.08-2.49-4.35-1.37-4.23-3.36-7.96-4.73,4.73-3.85,11.19,7.83,5.6,1.74,6.84,1.62-1.49-6.47-1.87-4.35-3.85-4.23-5.1-6.22,4.6-3.36,2.98,4.35,5.35,5.22,1.87,3.61,1.49,5.1,1.49,3.48.99,2.86,3.85,5.22,3.85,4.1,9.33,8.08,31.46,27.98,7.21-4.48,7.71-3.85,6.96-1.99,6.47-1.24,8.58-.99.12,4.48-13.43,2.61-5.35.99-7.34,3.73-1.99,1.24-3.85,3.61,35.69,31.59s3.73-1.37,7.96-1.24,6.34,1.74,8.08,5.1l3.61-.12,4.73-.62,5.84-1.99,1.87-.25-2.24-3.73,5.35-1.37,18.9,28.35,5.22,4.48,14.18,12.31,7.83,7.46,2.98,4.48,1.87,7.09,10.07-3.36-10.82-21.64,12.31-4.1,25.74,49.99,42.9,26.86-6.34,9.33-17.53-10.07-3.73,7.09-4.48-2.24-.37,3.36-23.13-13.8,1.49-2.98-2.98-1.87,7.09-9.33-21.64,6.34,19.4,60.81-7.09.37-14.55-45.14-6.34-27.23-6.34-24.62-2.61-5.6-6.72-7.46-18.28-15.3-10.45-13.43-7.09-10.82-16.79,4.1s.37,4.48-2.24,6.34-2.24,4.1-5.97,3.36l.37,6.72.75,12.31,2.61,2.98,28.73,31.34-4.1,3.36-27.23-30.59-2.24,1.87-2.98.75h-2.61l1.49,4.1h-43.65v-15.3l18.65-7.83h23.88l.75,14.55,3.36-2.24-1.49-3.36-2.24-19.03-4.1-.75-2.61-2.61-87.3,39.17s.37,2.24-.37,5.6-1.87,1.87-4.48,3.36l1.87,5.6,1.12,3.36.37,5.22v85.06s1.87,5.22,5.22,8.95,8.58,4.85,11.19,4.85l.75-3.36h89.53v2.61h4.1l2.61-4.1,4.85-14.92,5.22-.37.37,12.68s3.36,5.97,10.07,7.09l.75,5.22v26.49l-61.93-.75-1.12-22.76-54.09.37-.75-4.1s-21.26-2.24-21.26-15.3h-3.73v14.92l-23.13-.37v-11.19l-5.6-.37v-2.98l-3.36.75,6.72,10.82-20.89,10.82-49.24-69.02v-7.46l18.65-10.07,42.53,61.18,5.22-2.24v-3.36l17.53.37-.37-34.32,14.92.37-.75-49.24-.37-4.1-1.87-3.36s-8.21-.37-9.7-2.98c-4.1,1.87-86.92,38.42-86.92,38.42,0,0-6.34,8.21-3.36,14.18s50.36,74.61,50.36,74.61c0,0,4.85,7.46,2.98,13.06s-4.1,9.33-4.1,9.33l-5.1-2.61h.04Z" style="fill: #d3d3d3; stroke: #000; stroke-miterlimit: 10;"/>
  <polygon id="RoadsInner" points="304.42 237.76 321.33 233.78 307.9 208.91 298.45 213.39 304.42 237.76" style="fill: #f2f2f2; stroke: #000; stroke-miterlimit: 10;"/>
  <polygon id="Field" points="154.21 292.48 204.44 292.97 203.45 225.33 155.2 226.32 154.21 292.48" style="fill: #0baa4b; stroke: #000; stroke-miterlimit: 10;"/>
  <polygon id="StadiumWalls" points="172.36 206.05 123.86 207.17 124.24 302.3 139.53 313.49 222.35 313.49 232.05 303.42 231.3 210.9 225.34 206.42 179.82 206.42 179.82 201.95 226.08 202.69 234.29 211.65 235.03 304.16 223.84 316.48 137.29 316.1 120.51 303.42 121.63 204.68 172.73 202.32 172.36 206.05" style="fill: #666; stroke: #666; stroke-miterlimit: 10;"/>
  <g id="Bleachers">
    <g>
      <polygon points="208.42 292.97 213.4 295.46 213.4 221.84 208.42 223.83 208.42 292.97" style="fill: none; stroke: #000; stroke-miterlimit: 10;"/>
      <polygon points="213.4 295.46 217.38 296.95 217.87 219.85 213.4 221.84 213.4 295.46" style="fill: none; stroke: #000; stroke-miterlimit: 10; stroke-width: 2px;"/>
      <polygon points="223.35 297.95 222.85 219.36 217.87 219.85 217.38 296.95 223.35 297.95" style="fill: none; stroke: #000; stroke-miterlimit: 10; stroke-width: 2px;"/>
      <polygon points="230.31 300.43 230.31 216.37 222.85 219.36 223.35 297.95 230.31 300.43" style="fill: none; stroke: #000; stroke-miterlimit: 10; stroke-width: 2px;"/>
      <polygon points="149.23 293.47 150.72 224.33 142.77 221.35 143.26 294.96 149.23 293.47" style="fill: none; stroke: #000; stroke-miterlimit: 10; stroke-width: 2px;"/>
      <polygon points="136.8 218.86 138.29 296.95 143.26 294.96 142.77 221.35 136.8 218.86" style="fill: none; stroke: #000; stroke-miterlimit: 10; stroke-width: 2px;"/>
      <polygon points="131.32 217.86 133.31 298.94 138.29 296.95 136.8 218.86 131.32 217.86" style="fill: none; stroke: #000; stroke-miterlimit: 10; stroke-width: 2px;"/>
      <polygon points="126.35 215.87 126.35 299.94 133.31 298.94 131.32 217.86 126.35 215.87" style="fill: none; stroke: #000; stroke-miterlimit: 10; stroke-width: 2px;"/>
    </g>
    <g>
      <polygon points="208.42 292.97 213.4 295.46 213.4 221.84 208.42 223.83 208.42 292.97" style="fill: #1c6bb5;"/>
      <polygon points="213.4 295.46 217.38 296.95 217.87 219.85 213.4 221.84 213.4 295.46" style="fill: #1c6bb5;"/>
      <polygon points="223.35 297.95 222.85 219.36 217.87 219.85 217.38 296.95 223.35 297.95" style="fill: #1c6bb5;"/>
      <polygon points="230.31 300.43 230.31 216.37 222.85 219.36 223.35 297.95 230.31 300.43" style="fill: #1c6bb5;"/>
      <polygon points="149.23 293.47 150.72 224.33 142.77 221.35 143.26 294.96 149.23 293.47" style="fill: #1c6bb5;"/>
      <polygon points="136.8 218.86 138.29 296.95 143.26 294.96 142.77 221.35 136.8 218.86" style="fill: #1c6bb5;"/>
      <polygon points="131.32 217.86 133.31 298.94 138.29 296.95 136.8 218.86 131.32 217.86" style="fill: #1c6bb5;"/>
      <polygon points="126.35 215.87 126.35 299.94 133.31 298.94 131.32 217.86 126.35 215.87" style="fill: #1c6bb5;"/>
    </g>
  </g>
  <g id="Buildings">
    <g>
      <polygon points="164.65 299.15 165.15 311.72 192.01 312.44 190.52 299.15 164.65 299.15" style="fill: none; stroke: #000; stroke-miterlimit: 10; stroke-width: 2px;"/>
      <polygon points="144.72 212.2 170.08 212.54 170.08 209.43 144.22 208.74 144.72 212.2" style="fill: none; stroke: #000; stroke-miterlimit: 10; stroke-width: 2px;"/>
      <polygon points="182.67 213.16 210.52 213.87 209.53 209.63 183.16 209.28 182.67 213.16" style="fill: none; stroke: #000; stroke-miterlimit: 10; stroke-width: 2px;"/>
      <polygon points="52.24 271.58 66.16 270.09 63.68 256.16 54.72 241.74 37.31 249.2 52.24 271.58" style="fill: none; stroke: #000; stroke-miterlimit: 10; stroke-width: 2px;"/>
      <polygon points="67.66 250.69 91.03 240.75 94.52 242.24 94.02 268.1 108.94 268.1 109.44 234.28 90.54 224.83 60.69 239.25 67.66 250.69" style="fill: none; stroke: #000; stroke-miterlimit: 10; stroke-width: 2px;"/>
      <polygon points="210.41 134.3 220.86 130.82 212.4 108.93 202.45 112.41 210.41 134.3" style="fill: none; stroke: #000; stroke-miterlimit: 10; stroke-width: 2px;"/>
      <polygon points="230.31 170.61 239.26 166.13 253.19 185.53 244.73 191.5 230.31 170.61" style="fill: none; stroke: #000; stroke-miterlimit: 10; stroke-width: 2px;"/>
      <polygon points="251.2 197.97 258.16 191 275.57 206.92 269.11 214.38 251.2 197.97" style="fill: none; stroke: #000; stroke-miterlimit: 10; stroke-width: 2px;"/>
      <polygon points="274.08 282.53 299.95 278.05 302.93 287 278.06 292.48 274.08 282.53" style="fill: none; stroke: #000; stroke-miterlimit: 10; stroke-width: 2px;"/>
      <polygon points="270.6 297.95 266.12 319.83 256.17 318.84 260.65 294.96 270.6 297.95" style="fill: none; stroke: #000; stroke-miterlimit: 10; stroke-width: 2px;"/>
      <polygon points="383.01 240.75 377.54 251.69 347.2 235.77 353.17 225.33 344.71 222.34 341.23 215.87 331.78 218.86 321.83 198.47 328.8 196.48 326.81 192.5 320.34 194.98 309.89 172.6 321.33 167.63 345.21 212.89 347.2 218.86 356.65 222.84 383.01 240.75" style="fill: none; stroke: #000; stroke-miterlimit: 10; stroke-width: 2px;"/>
    </g>
    <g>
      <polygon points="164.65 299.15 165.15 311.72 192.01 312.44 190.52 299.15 164.65 299.15" style="fill: #be872c;"/>
      <polygon points="144.72 212.2 170.08 212.54 170.08 209.43 144.22 208.74 144.72 212.2" style="fill: #be872c;"/>
      <polygon points="182.67 213.16 210.52 213.87 209.53 209.63 183.16 209.28 182.67 213.16" style="fill: #be872c;"/>
      <polygon points="52.24 271.58 66.16 270.09 63.68 256.16 54.72 241.74 37.31 249.2 52.24 271.58" style="fill: #be872c;"/>
      <polygon points="67.66 250.69 91.03 240.75 94.52 242.24 94.02 268.1 108.94 268.1 109.44 234.28 90.54 224.83 60.69 239.25 67.66 250.69" style="fill: #be872c;"/>
      <polygon points="210.41 134.3 220.86 130.82 212.4 108.93 202.45 112.41 210.41 134.3" style="fill: #be872c;"/>
      <polygon points="230.31 170.61 239.26 166.13 253.19 185.53 244.73 191.5 230.31 170.61" style="fill: #be872c;"/>
      <polygon points="251.2 197.97 258.16 191 275.57 206.92 269.11 214.38 251.2 197.97" style="fill: #be872c;"/>
      <polygon points="274.08 282.53 299.95 278.05 302.93 287 278.06 292.48 274.08 282.53" style="fill: #be872c;"/>
      <polygon points="270.6 297.95 266.12 319.83 256.17 318.84 260.65 294.96 270.6 297.95" style="fill: #be872c;"/>
      <polygon points="383.01 240.75 377.54 251.69 347.2 235.77 353.17 225.33 344.71 222.34 341.23 215.87 331.78 218.86 321.83 198.47 328.8 196.48 326.81 192.5 320.34 194.98 309.89 172.6 321.33 167.63 345.21 212.89 347.2 218.86 356.65 222.84 383.01 240.75" style="fill: #be872c;"/>
    </g>
    <g>
      <polygon points="164.65 299.15 165.15 311.72 192.01 312.44 190.52 299.15 164.65 299.15" style="fill: none; stroke: #231f20; stroke-miterlimit: 10;"/>
      <polygon points="144.72 212.2 170.08 212.54 170.08 209.43 144.22 208.74 144.72 212.2" style="fill: none; stroke: #231f20; stroke-miterlimit: 10;"/>
      <polygon points="182.67 213.16 210.52 213.87 209.53 209.63 183.16 209.28 182.67 213.16" style="fill: none; stroke: #231f20; stroke-miterlimit: 10;"/>
      <polygon points="52.24 271.58 66.16 270.09 63.68 256.16 54.72 241.74 37.31 249.2 52.24 271.58" style="fill: none; stroke: #231f20; stroke-miterlimit: 10;"/>
      <polygon points="67.66 250.69 91.03 240.75 94.52 242.24 94.02 268.1 108.94 268.1 109.44 234.28 90.54 224.83 60.69 239.25 67.66 250.69" style="fill: none; stroke: #231f20; stroke-miterlimit: 10;"/>
      <polygon points="210.41 134.3 220.86 130.82 212.4 108.93 202.45 112.41 210.41 134.3" style="fill: none; stroke: #231f20; stroke-miterlimit: 10;"/>
      <polygon points="230.31 170.61 239.26 166.13 253.19 185.53 244.73 191.5 230.31 170.61" style="fill: none; stroke: #231f20; stroke-miterlimit: 10;"/>
      <polygon points="251.2 197.97 258.16 191 275.57 206.92 269.11 214.38 251.2 197.97" style="fill: none; stroke: #231f20; stroke-miterlimit: 10;"/>
      <polygon points="274.08 282.53 299.95 278.05 302.93 287 278.06 292.48 274.08 282.53" style="fill: none; stroke: #231f20; stroke-miterlimit: 10;"/>
      <polygon points="270.6 297.95 266.12 319.83 256.17 318.84 260.65 294.96 270.6 297.95" style="fill: none; stroke: #231f20; stroke-miterlimit: 10;"/>
      <polygon points="383.01 240.75 377.54 251.69 347.2 235.77 353.17 225.33 344.71 222.34 341.23 215.87 331.78 218.86 321.83 198.47 328.8 196.48 326.81 192.5 320.34 194.98 309.89 172.6 321.33 167.63 345.21 212.89 347.2 218.86 356.65 222.84 383.01 240.75" style="fill: none; stroke: #231f20; stroke-miterlimit: 10;"/>
    </g>
  </g>
  <g id="GreenRoundabouts">
    <g>
      <circle cx="108.69" cy="206.18" r="6.22" style="fill: none; stroke: #000; stroke-miterlimit: 10;"/>
      <circle cx="216.01" cy="157.77" r="6.47" style="fill: none; stroke: #000; stroke-miterlimit: 10;"/>
      <circle cx="81.3" cy="286.48" r="4.73" style="fill: none; stroke: #000; stroke-miterlimit: 10;"/>
    </g>
    <g>
      <circle cx="108.69" cy="206.18" r="6.22" style="fill: #058b44;"/>
      <circle cx="216.01" cy="157.77" r="6.47" style="fill: #058b44;"/>
      <circle cx="81.3" cy="286.48" r="4.73" style="fill: #058b44;"/>
    </g>
  </g>
</svg>